Coordinates
version=1
nRows=21
nColumns=12
inDegrees=yes

Units are S.I. units (second, meters, Newtons, ...)
Angles are in degrees

endheader
time	SC_y	SC_z	SC_x	AC_y	AC_z	AC_x	GH_y	GH_z	GH_yy	EL_x	PS_y
       0.0              -11.45          31.03           28.4          45.24         -19.38        -0.7012          64.58          83.09         -31.02          45.61          71.98
   0.01242              -11.45          31.03           28.4          45.23         -19.38        -0.7017          64.56          83.09         -31.01          45.62          71.98
   0.02484              -11.46          31.03           28.4          45.23         -19.38        -0.7022          64.54          83.08          -31.0          45.63          71.97
   0.03726              -11.47          31.02           28.4          45.23         -19.37        -0.7028          64.51          83.08         -30.99          45.63          71.97
   0.04968              -11.48          31.02           28.4          45.23         -19.37        -0.7034          64.48          83.07         -30.97          45.64          71.96
    0.0621              -11.48          31.02          28.39          45.23         -19.37         -0.704          64.45          83.07         -30.96          45.64          71.95
   0.07452              -11.49          31.01          28.39          45.22         -19.37        -0.7047          64.42          83.06         -30.95          45.65          71.95
   0.08694               -11.5          31.01          28.39          45.22         -19.36        -0.7055          64.39          83.06         -30.94          45.66          71.94
   0.09936              -11.51           31.0          28.39          45.22         -19.36        -0.7063          64.35          83.05         -30.92          45.67          71.93
    0.1118              -11.52           31.0          28.39          45.22         -19.36        -0.7071          64.31          83.05         -30.91          45.68          71.93
    0.1242              -11.54          30.99          28.38          45.21         -19.35        -0.7081          64.27          83.04         -30.89          45.69          71.92
    0.1366              -11.55          30.99          28.38          45.21         -19.35         -0.709          64.22          83.03         -30.87           45.7          71.91
     0.149              -11.56          30.98          28.38          45.21         -19.34        -0.7101          64.17          83.03         -30.85          45.71           71.9
    0.1615              -11.58          30.98          28.37          45.21         -19.34        -0.7113          64.12          83.02         -30.83          45.72          71.89
    0.1739               -11.6          30.97          28.37           45.2         -19.33        -0.7125          64.06          83.01         -30.81          45.73          71.88
    0.1863              -11.61          30.96          28.37           45.2         -19.32        -0.7139           64.0           83.0         -30.78          45.75          71.87
    0.1987              -11.63          30.96          28.36          45.19         -19.32        -0.7153          63.94          82.99         -30.76          45.76          71.85
    0.2111              -11.65          30.95          28.36          45.19         -19.31        -0.7169          63.86          82.98         -30.73          45.78          71.84
    0.2236              -11.68          30.94          28.35          45.18          -19.3        -0.7187          63.78          82.96         -30.69           45.8          71.82
     0.236               -11.7          30.93          28.35          45.18         -19.29        -0.7206          63.69          82.95         -30.66          45.82          71.81
    0.2484              -11.73          30.92          28.34          45.17         -19.28        -0.7227           63.6          82.93         -30.62          45.84          71.79
